<svg xmlns="http://www.w3.org/2000/svg" width="92" height="92" viewBox="0 0 92 92" xmlns:xlink="http://www.w3.org/1999/xlink">
  <defs>
    <path id="a" d="M240,36 C227.302022,36 216.460983,40.4921415 207.476562,49.4765625 C198.492143,58.4609835 194,69.302022 194,82 C194,94.697978 198.492143,105.539017 207.476562,114.523438 C216.460983,123.507857 227.302022,128 240,128 C252.697978,128 263.539017,123.507857 272.523438,114.523438 C281.507858,105.539017 286,94.697978 286,82 C286,69.302022 281.507858,58.4609835 272.523438,49.4765625 C263.539017,40.4921415 252.697978,36 240,36 L240,36 Z M240,122.25 C228.859318,122.25 219.365929,118.326862 211.519537,110.480463 C203.673138,102.634071 199.75,93.1406825 199.75,82 C199.75,70.8593175 203.673138,61.3659295 211.519537,53.519537 C219.365929,45.673133 228.859318,41.75 240,41.75 C251.140682,41.75 260.634071,45.673133 268.480463,53.519537 C276.326867,61.3659295 280.25,70.8593175 280.25,82 C280.25,93.1406825 276.326867,102.634071 268.480463,110.480463 C260.634071,118.326862 251.140682,122.25 240,122.25 L240,122.25 Z M240,53.25 C238.442704,53.25 237.095054,53.8190085 235.957037,54.957037 C234.819008,56.095054 234.25,57.4427045 234.25,59 L234.25,87.75 C234.25,89.3072955 234.819008,90.654946 235.957037,91.792963 C237.095054,92.9309915 238.442704,93.5 240,93.5 C241.557296,93.5 242.904946,92.9309915 244.042963,91.792963 C245.180992,90.654946 245.75,89.3072955 245.75,87.75 L245.75,59 C245.75,57.4427045 245.180992,56.095054 244.042963,54.957037 C242.904946,53.8190085 241.557296,53.25 240,53.25 L240,53.25 Z M234.25,104.910162 C234.25,106.52735 234.819008,107.875 235.957037,108.953125 C237.095054,110.03125 238.442704,110.570312 240,110.570312 C241.557296,110.570312 242.904946,110.03125 244.042963,108.953125 C245.180992,107.875 245.75,106.52735 245.75,104.910162 C245.75,103.292963 245.180992,101.915367 244.042963,100.777338 C242.904946,99.639321 241.557296,99.0703125 240,99.0703125 C238.442704,99.0703125 237.095054,99.639321 235.957037,100.777338 C234.819008,101.915367 234.25,103.292963 234.25,104.910162 L234.25,104.910162 Z"/>
    <filter id="b" width="200%" height="200%" x="-50%" y="-50%" filterUnits="objectBoundingBox">
      <feGaussianBlur stdDeviation="1.5" in="SourceAlpha" result="shadowBlurInner1"/>
      <feOffset dy="2" in="shadowBlurInner1" result="shadowOffsetInner1"/>
      <feComposite in="shadowOffsetInner1" in2="SourceAlpha" operator="arithmetic" k2="-1" k3="1" result="shadowInnerInner1"/>
      <feColorMatrix values="0 0 0 0 0 0 0 0 0 0 0 0 0 0 0 0 0 0 0.105978261 0" in="shadowInnerInner1" result="shadowMatrixInner1"/>
      <feGaussianBlur stdDeviation=".5" in="SourceAlpha" result="shadowBlurInner2"/>
      <feOffset dy="-1" in="shadowBlurInner2" result="shadowOffsetInner2"/>
      <feComposite in="shadowOffsetInner2" in2="SourceAlpha" operator="arithmetic" k2="-1" k3="1" result="shadowInnerInner2"/>
      <feColorMatrix values="0 0 0 0 0 0 0 0 0 0 0 0 0 0 0 0 0 0 0.17113904 0" in="shadowInnerInner2" result="shadowMatrixInner2"/>
      <feMerge>
        <feMergeNode in="shadowMatrixInner1"/>
        <feMergeNode in="shadowMatrixInner2"/>
      </feMerge>
    </filter>
  </defs>
  <g fill="none" fill-rule="evenodd" transform="translate(-194 -36)">
    <use fill="#D7D7D7" xlink:href="#a"/>
    <use fill="black" filter="url(#b)" xlink:href="#a"/>
  </g>
</svg>
