<svg xmlns="http://www.w3.org/2000/svg" width="80" height="80" viewBox="0 0 80 80" xmlns:xlink="http://www.w3.org/1999/xlink">
  <defs>
    <path id="a" d="M239.922027,36 C228.901831,36 219.493217,39.90621 211.695906,47.71875 C203.898597,55.53129 200,64.95828 200,76 C200,87.04172 203.898597,96.46871 211.695906,104.28125 C219.493217,112.093789 228.901831,116 239.922027,116 C250.942223,116 260.350837,112.093789 268.148148,104.28125 C275.945459,96.46871 279.844055,87.04172 279.844055,76 C279.844055,64.95828 275.945459,55.53129 268.148148,47.71875 C260.350837,39.90621 250.942223,36 239.922027,36 L239.922027,36 Z M239.999995,111 C230.383318,111 222.144279,107.588576 215.282651,100.76562 C208.421019,93.94267 204.990253,85.68755 204.990253,76 C204.990253,66.31245 208.421019,58.05733 215.282651,51.23438 C222.144279,44.41142 230.383318,41 239.999995,41 C249.616682,41 257.829721,44.41142 264.639371,51.23438 C271.449031,58.05733 274.853801,66.31245 274.853801,76 C274.853801,85.68755 271.449031,93.94267 264.639371,100.76562 C257.829721,107.588576 249.616682,111 239.999995,111 L239.999995,111 Z M257.465882,60.0625 C256.686155,59.54166 255.82846,59.38542 254.892788,59.59375 C253.957115,59.80208 253.177388,60.32291 252.553606,61.15625 L235.711501,86.9375 L227.758285,79.4375 C227.030536,78.8125 226.172841,78.5 225.18519,78.5 C224.197529,78.5 223.391813,78.86458 222.768031,79.59375 C222.14425,80.32292 221.858348,81.18229 221.910326,82.17188 C221.962315,83.16146 222.300195,83.96875 222.923977,84.59375 L234.152047,94.90625 C234.152047,94.90625 234.178036,94.93229 234.230024,94.98438 C234.282003,95.03646 234.333981,95.08854 234.38596,95.14062 C234.437948,95.19271 234.463938,95.21875 234.463938,95.21875 C234.567905,95.21875 234.671862,95.24479 234.775828,95.29688 C234.879795,95.34896 234.931774,95.375 234.931774,95.375 C235.243665,95.47917 235.451589,95.58333 235.555556,95.6875 L236.179337,95.6875 C236.491228,95.79167 236.75114,95.79167 236.959064,95.6875 L237.270955,95.6875 C237.686813,95.58333 238.050682,95.42708 238.362573,95.21875 C238.362573,95.21875 238.414552,95.16667 238.518519,95.0625 C238.830409,94.85417 239.012344,94.72396 239.064322,94.67188 C239.116311,94.61979 239.168289,94.54167 239.220278,94.4375 C239.272256,94.33333 239.298246,94.28125 239.298246,94.28125 L258.479532,64.90625 C258.999357,64.07291 259.155292,63.1875 258.947368,62.25 C258.739445,61.3125 258.245619,60.58334 257.465882,60.0625 L257.465882,60.0625 Z"/>
    <filter id="b" width="200%" height="200%" x="-50%" y="-50%" filterUnits="objectBoundingBox">
      <feGaussianBlur stdDeviation="1.5" in="SourceAlpha" result="shadowBlurInner1"/>
      <feOffset dy="2" in="shadowBlurInner1" result="shadowOffsetInner1"/>
      <feComposite in="shadowOffsetInner1" in2="SourceAlpha" operator="arithmetic" k2="-1" k3="1" result="shadowInnerInner1"/>
      <feColorMatrix values="0 0 0 0 0 0 0 0 0 0 0 0 0 0 0 0 0 0 0.105978261 0" in="shadowInnerInner1" result="shadowMatrixInner1"/>
      <feGaussianBlur stdDeviation=".5" in="SourceAlpha" result="shadowBlurInner2"/>
      <feOffset dy="-1" in="shadowBlurInner2" result="shadowOffsetInner2"/>
      <feComposite in="shadowOffsetInner2" in2="SourceAlpha" operator="arithmetic" k2="-1" k3="1" result="shadowInnerInner2"/>
      <feColorMatrix values="0 0 0 0 0 0 0 0 0 0 0 0 0 0 0 0 0 0 0.17113904 0" in="shadowInnerInner2" result="shadowMatrixInner2"/>
      <feMerge>
        <feMergeNode in="shadowMatrixInner1"/>
        <feMergeNode in="shadowMatrixInner2"/>
      </feMerge>
    </filter>
  </defs>
  <g fill="none" fill-rule="evenodd" transform="translate(-200 -36)">
    <use fill="#D7D7D7" xlink:href="#a"/>
    <use fill="black" filter="url(#b)" xlink:href="#a"/>
  </g>
</svg>
