<svg xmlns="http://www.w3.org/2000/svg" width="92" height="92" viewBox="0 0 92 92" xmlns:xlink="http://www.w3.org/1999/xlink">
  <defs>
    <path id="a" d="M239.910331,36 C227.237106,36 216.4172,40.4921415 207.450292,49.4765625 C198.483386,58.4609835 194,69.302022 194,82 C194,94.697978 198.483386,105.539016 207.450292,114.523437 C216.4172,123.507857 227.237106,128 239.910331,128 C252.583557,128 263.403463,123.507857 272.37037,114.523437 C281.337278,105.539016 285.820663,94.697978 285.820663,82 C285.820663,69.302022 281.337278,58.4609835 272.37037,49.4765625 C263.403463,40.4921415 252.583557,36 239.910331,36 L239.910331,36 Z M239.999994,122.25 C228.940815,122.25 219.465921,118.326862 211.575049,110.480463 C203.684172,102.63407 199.738791,93.1406825 199.738791,82 C199.738791,70.8593175 203.684172,61.3659295 211.575049,53.519537 C219.465921,45.673133 228.940815,41.75 239.999994,41.75 C251.059185,41.75 260.50418,45.673133 268.335277,53.519537 C276.166386,61.3659295 280.081871,70.8593175 280.081871,82 C280.081871,93.1406825 276.166386,102.63407 268.335277,110.480463 C260.50418,118.326862 251.059185,122.25 239.999994,122.25 L239.999994,122.25 Z M260.085764,63.671875 C259.189078,63.072909 258.202729,62.893233 257.126706,63.1328125 C256.050682,63.372392 255.153996,63.9713465 254.436647,64.9296875 L235.068226,94.578125 L225.922027,85.953125 C225.085116,85.234375 224.098767,84.875 222.962969,84.875 C221.827159,84.875 220.900585,85.294267 220.183236,86.1328125 C219.465887,86.971358 219.1371,87.9596335 219.196875,89.097662 C219.256662,90.235679 219.645224,91.1640625 220.362573,91.8828125 L233.274854,103.742187 C233.274854,103.742187 233.304741,103.772133 233.364528,103.832037 C233.424303,103.891929 233.484079,103.951821 233.543854,104.011713 C233.603641,104.071616 233.633528,104.101562 233.633528,104.101562 C233.75309,104.101562 233.872641,104.131508 233.992203,104.191412 C234.111765,104.251304 234.17154,104.28125 234.17154,104.28125 C234.530214,104.401045 234.769327,104.520829 234.888889,104.640625 L235.606238,104.640625 C235.964912,104.76042 236.263811,104.76042 236.502924,104.640625 L236.861598,104.640625 C237.339835,104.520829 237.758285,104.341142 238.116959,104.101562 C238.116959,104.101562 238.176734,104.04167 238.296296,103.921875 C238.654971,103.682295 238.864196,103.532554 238.923971,103.472662 C238.983758,103.412758 239.043533,103.32292 239.10332,103.203125 C239.163095,103.083329 239.192982,103.023437 239.192982,103.023437 L261.251462,69.2421875 C261.84926,68.2838465 262.028586,67.265625 261.789474,66.1875 C261.550361,65.109375 260.982462,64.270841 260.085764,63.671875 L260.085764,63.671875 Z"/>
    <filter id="b" width="200%" height="200%" x="-50%" y="-50%" filterUnits="objectBoundingBox">
      <feGaussianBlur stdDeviation="1.5" in="SourceAlpha" result="shadowBlurInner1"/>
      <feOffset dy="2" in="shadowBlurInner1" result="shadowOffsetInner1"/>
      <feComposite in="shadowOffsetInner1" in2="SourceAlpha" operator="arithmetic" k2="-1" k3="1" result="shadowInnerInner1"/>
      <feColorMatrix values="0 0 0 0 0 0 0 0 0 0 0 0 0 0 0 0 0 0 0.105978261 0" in="shadowInnerInner1" result="shadowMatrixInner1"/>
      <feGaussianBlur stdDeviation=".5" in="SourceAlpha" result="shadowBlurInner2"/>
      <feOffset dy="-1" in="shadowBlurInner2" result="shadowOffsetInner2"/>
      <feComposite in="shadowOffsetInner2" in2="SourceAlpha" operator="arithmetic" k2="-1" k3="1" result="shadowInnerInner2"/>
      <feColorMatrix values="0 0 0 0 0 0 0 0 0 0 0 0 0 0 0 0 0 0 0.17113904 0" in="shadowInnerInner2" result="shadowMatrixInner2"/>
      <feMerge>
        <feMergeNode in="shadowMatrixInner1"/>
        <feMergeNode in="shadowMatrixInner2"/>
      </feMerge>
    </filter>
  </defs>
  <g fill="none" fill-rule="evenodd" transform="translate(-194 -36)">
    <use fill="#D7D7D7" xlink:href="#a"/>
    <use fill="black" filter="url(#b)" xlink:href="#a"/>
  </g>
</svg>
