<svg xmlns="http://www.w3.org/2000/svg" width="50" height="50" viewBox="0 0 50 50">
  <path fill-rule="evenodd" d="M9,16.1111111 C9,12.1837529 12.1917443,9 16.1111111,9 C20.0384693,9 23.2222222,12.1917443 23.2222222,16.1111111 C23.2222222,20.0384693 20.0304779,23.2222222 16.1111111,23.2222222 C12.1837529,23.2222222 9,20.0304779 9,16.1111111 Z M26.7777778,16.1111111 C26.7777778,12.1837529 29.9695221,9 33.8888889,9 C37.8162471,9 41,12.1917443 41,16.1111111 C41,20.0384693 37.8082557,23.2222222 33.8888889,23.2222222 C29.9615307,23.2222222 26.7777778,20.0304779 26.7777778,16.1111111 Z M26.7777778,33.8888889 C26.7777778,29.9615307 29.9695221,26.7777778 33.8888889,26.7777778 C37.8162471,26.7777778 41,29.9695221 41,33.8888889 C41,37.8162471 37.8082557,41 33.8888889,41 C29.9615307,41 26.7777778,37.8082557 26.7777778,33.8888889 Z M9,33.8888889 C9,29.9615307 12.1917443,26.7777778 16.1111111,26.7777778 C20.0384693,26.7777778 23.2222222,29.9695221 23.2222222,33.8888889 C23.2222222,37.8162471 20.0304779,41 16.1111111,41 C12.1837529,41 9,37.8082557 9,33.8888889 Z"/>
</svg>
