<svg xmlns="http://www.w3.org/2000/svg" width="60" height="50" viewBox="0 0 60 50">
  <path fill-rule="evenodd" d="M5,16.1111111 C5,12.1837529 8.19174427,9 12.1111111,9 C16.0384693,9 19.2222222,12.1917443 19.2222222,16.1111111 C19.2222222,20.0384693 16.0304779,23.2222222 12.1111111,23.2222222 C8.18375289,23.2222222 5,20.0304779 5,16.1111111 Z M22.7777778,16.1111111 C22.7777778,12.1837529 25.9695221,9 29.8888889,9 C33.8162471,9 37,12.1917443 37,16.1111111 C37,20.0384693 33.8082557,23.2222222 29.8888889,23.2222222 C25.9615307,23.2222222 22.7777778,20.0304779 22.7777778,16.1111111 Z M40.5555556,16.1111111 C40.5555556,12.1837529 43.7472998,9 47.6666667,9 C51.5940249,9 54.7777778,12.1917443 54.7777778,16.1111111 C54.7777778,20.0384693 51.5860335,23.2222222 47.6666667,23.2222222 C43.7393084,23.2222222 40.5555556,20.0304779 40.5555556,16.1111111 Z M22.7777778,33.8888889 C22.7777778,29.9615307 25.9695221,26.7777778 29.8888889,26.7777778 C33.8162471,26.7777778 37,29.9695221 37,33.8888889 C37,37.8162471 33.8082557,41 29.8888889,41 C25.9615307,41 22.7777778,37.8082557 22.7777778,33.8888889 Z M40.5555556,33.8888889 C40.5555556,29.9615307 43.7472998,26.7777778 47.6666667,26.7777778 C51.5940249,26.7777778 54.7777778,29.9695221 54.7777778,33.8888889 C54.7777778,37.8162471 51.5860335,41 47.6666667,41 C43.7393084,41 40.5555556,37.8082557 40.5555556,33.8888889 Z M5,33.8888889 C5,29.9615307 8.19174427,26.7777778 12.1111111,26.7777778 C16.0384693,26.7777778 19.2222222,29.9695221 19.2222222,33.8888889 C19.2222222,37.8162471 16.0304779,41 12.1111111,41 C8.18375289,41 5,37.8082557 5,33.8888889 Z"/>
</svg>
