<svg xmlns="http://www.w3.org/2000/svg" width="60" height="50" viewBox="0 0 60 50">
  <path fill-rule="evenodd" d="M26.2253718,24.4296492 C26.2253718,24.4296492 26.3661077,25.3333219 26.2784564,26.8147526 C26.1241407,29.4152807 25.2130608,31.2337368 22.4613033,31.2806488 C20.1150875,31.3220054 19.1200599,29.4226878 19.536095,26.7912966 C19.7743584,25.2931998 20.0113873,24.3827372 20.0113873,24.3827372 L26.2253718,24.4296492 Z M19.9663272,21.6655464 C19.9879313,21.9550427 20.1681721,22.2272556 20.5891453,22.1396043 C22.0946492,21.8272693 24.3902495,21.7352971 25.7247716,22.0303488 C26.2185819,22.138987 26.4617834,21.9426974 26.6753563,21.4118514 C27.191388,20.1285621 27.9518558,18.6477487 27.8586491,16.8527485 C27.6710012,13.1948493 25.911185,12.2621652 24.5532069,12.3208052 C23.193377,12.3806797 19.3953591,14.0781523 19.9663272,21.6655464 L19.9663272,21.6655464 Z M41.7482962,31.7621138 C41.7482962,31.7621138 42.1544551,32.885532 42.6507344,34.7564555 C43.5303339,38.0699222 42.6890047,40.5939097 40.0057634,40.7439045 C36.862044,40.9210589 35.5688785,38.6668153 35.0318599,35.3743356 C34.7281666,33.5120538 34.762116,32.3645623 34.762116,32.3645623 L41.7482962,31.7621138 Z M34.4016346,17.8274065 C32.9127968,17.9545626 31.1461907,19.3316759 31.5313626,23.7833751 C31.7220968,25.9907068 32.8047758,27.6968211 33.589934,29.2060286 C33.9152315,29.8337848 34.2189248,30.0405679 34.747919,29.8319331 C36.1774996,29.2665204 38.7391402,29.0393676 40.4643896,29.2010905 C40.9477064,29.2480025 41.0977012,28.8825829 41.0686899,28.5208669 C40.3322954,19.1785947 35.894176,17.6996331 34.4016346,17.8274065 L34.4016346,17.8274065 Z M18.5799549,8.02589074 C18.5799549,7.67158191 18.5206977,7.50739001 18.4305773,7.30431055 C18.3398397,7.1012311 18.2361396,7 18.1182424,7 L15.5930203,7 C15.4751231,7 15.371423,7.1012311 15.2806854,7.30431055 C15.1899477,7.50739001 5.00140825,41.9741093 5.00140825,41.9741093 L5.00140825,42.1024999 C4.99214931,42.358664 5.02856782,42.5728542 5.1100465,42.7438359 C5.19152519,42.9142005 5.28658366,43 5.39522191,43 L8.70807126,43 C8.81670951,43 8.91176798,42.9142005 8.99324667,42.7438359 L18.5799549,8.02589074 Z M40.7569722,8.02589074 C40.7569722,7.67158191 40.8162294,7.50739001 40.9063498,7.30431055 C40.9970874,7.1012311 41.1014048,7 41.2186848,7 L43.7439068,7 C43.861804,7 43.9661214,7.1012311 44.0562418,7.30431055 C44.1469794,7.50739001 54.3355189,41.9741093 54.3355189,41.9741093 L54.3355189,42.1024999 C54.3447778,42.358664 54.3083593,42.5728542 54.2268806,42.7438359 C54.1454019,42.9142005 54.0503435,43 53.9417052,43 L50.6288559,43 C50.5202176,43 50.4257764,42.9142005 50.3442977,42.7438359 L40.7569722,8.02589074 Z"/>
</svg>
