<svg xmlns="http://www.w3.org/2000/svg" width="50" height="50" viewBox="0 0 50 50">
  <path d="M21.2253718,24.4296492 C21.2253718,24.4296492 21.3661077,25.3333219 21.2784564,26.8147526 C21.1241407,29.4152807 20.2130608,31.2337368 17.4613033,31.2806488 C15.1150875,31.3220054 14.1200599,29.4226878 14.536095,26.7912966 C14.7743584,25.2931998 15.0113873,24.3827372 15.0113873,24.3827372 L21.2253718,24.4296492 Z M14.9663272,21.6655464 C14.9879313,21.9550427 15.1681721,22.2272556 15.5891453,22.1396043 C17.0946492,21.8272693 19.3902495,21.7352971 20.7247716,22.0303488 C21.2185819,22.138987 21.4617834,21.9426974 21.6753563,21.4118514 C22.191388,20.1285621 22.9518558,18.6477487 22.8586491,16.8527485 C22.6710012,13.1948493 20.911185,12.2621652 19.5532069,12.3208052 C18.193377,12.3806797 14.3953591,14.0781523 14.9663272,21.6655464 L14.9663272,21.6655464 Z M36.7482962,31.7621138 C36.7482962,31.7621138 37.1544551,32.885532 37.6507344,34.7564555 C38.5303339,38.0699222 37.6890047,40.5939097 35.0057634,40.7439045 C31.862044,40.9210589 30.5688785,38.6668153 30.0318599,35.3743356 C29.7281666,33.5120538 29.762116,32.3645623 29.762116,32.3645623 L36.7482962,31.7621138 Z M29.4016346,17.8274065 C27.9127968,17.9545626 26.1461907,19.3316759 26.5313626,23.7833751 C26.7220968,25.9907068 27.8047758,27.6968211 28.589934,29.2060286 C28.9152315,29.8337848 29.2189248,30.0405679 29.747919,29.8319331 C31.1774996,29.2665204 33.7391402,29.0393676 35.4643896,29.2010905 C35.9477064,29.2480025 36.0977012,28.8825829 36.0686899,28.5208669 C35.3322954,19.1785947 30.894176,17.6996331 29.4016346,17.8274065 L29.4016346,17.8274065 Z M13.5799549,8.02589074 C13.5799549,7.67158191 13.5206977,7.50739001 13.4305773,7.30431055 C13.3398397,7.1012311 13.2361396,7 13.1182424,7 L10.5930203,7 C10.4751231,7 10.371423,7.1012311 10.2806854,7.30431055 C10.1899477,7.50739001 0.00140825267,41.9741093 0.00140825267,41.9741093 L0.00140825267,42.1024999 C-0.00785068906,42.358664 0.0285678151,42.5728542 0.110046502,42.7438359 C0.19152519,42.9142005 0.286583658,43 0.395221908,43 L3.70807126,43 C3.81670951,43 3.91176798,42.9142005 3.99324667,42.7438359 L13.5799549,8.02589074 Z M35.7569722,8.02589074 C35.7569722,7.67158191 35.8162294,7.50739001 35.9063498,7.30431055 C35.9970874,7.1012311 36.1014048,7 36.2186848,7 L38.7439068,7 C38.861804,7 38.9661214,7.1012311 39.0562418,7.30431055 C39.1469794,7.50739001 49.3355189,41.9741093 49.3355189,41.9741093 L49.3355189,42.1024999 C49.3447778,42.358664 49.3083593,42.5728542 49.2268806,42.7438359 C49.1454019,42.9142005 49.0503435,43 48.9417052,43 L45.6288559,43 C45.5202176,43 45.4257764,42.9142005 45.3442977,42.7438359 L35.7569722,8.02589074 Z"/>
</svg>
