<svg width="32" height="32" viewBox="0 0 32 32" xmlns="http://www.w3.org/2000/svg"><g fill="none"><path d="M32 15.99c0 2.173-.424 4.25-1.271 6.23-.847 1.98-1.983 3.682-3.406 5.108-1.424 1.426-3.125 2.561-5.104 3.406-1.979.844-4.052 1.267-6.219 1.267-2.167 0-4.24-.422-6.219-1.267-1.979-.844-3.681-1.98-5.104-3.406-1.424-1.426-2.559-3.129-3.406-5.108-.847-1.98-1.271-4.056-1.271-6.23 0-2.173.424-4.247 1.271-6.219.847-1.973 1.983-3.672 3.406-5.098 1.424-1.426 3.125-2.561 5.104-3.406 1.979-.844 4.052-1.267 6.219-1.267 2.167 0 4.24.422 6.219 1.267 1.979.844 3.681 1.98 5.104 3.406 1.424 1.426 2.559 3.125 3.406 5.098.847 1.973 1.271 4.046 1.271 6.219z" id="Path" fill="#707778"/><path d="M27.333 15.99c0-2.229-.604-4.271-1.813-6.126l-15.708 15.637c1.903 1.232 3.965 1.848 6.187 1.848 1.542 0 3.01-.301 4.406-.903 1.396-.602 2.601-1.409 3.615-2.419 1.014-1.011 1.819-2.218 2.417-3.624.597-1.405.896-2.876.896-4.413z" fill="#C7CAC4"/><path d="M6.521 22.199l15.729-15.657c-1.875-1.26-3.958-1.89-6.25-1.89-2.056 0-3.951.505-5.687 1.516-1.736 1.011-3.111 2.388-4.125 4.132-1.014 1.744-1.521 3.641-1.521 5.69 0 2.243.618 4.312 1.854 6.209z" fill="#C7CAC4"/></g></svg>
