<svg xmlns="http://www.w3.org/2000/svg" width="36" height="36" viewBox="0 0 36 36">
  <path fill-rule="evenodd" d="M32.6464794,2.4809076 C31.9745208,2.03205453 31.2353707,1.89740895 30.4290204,2.07694501 C29.6226701,2.25648107 28.9507115,2.70532552 28.4131447,3.423487 L13.8988394,25.6414299 L7.0448619,19.1780283 C6.4176977,18.6394115 5.67854756,18.3701031 4.8274029,18.3701031 C3.97624964,18.3701031 3.28189387,18.6842934 2.74432701,19.3126825 C2.20676015,19.9410716 1.9603739,20.6816654 2.00516828,21.5344811 C2.04997125,22.3872882 2.34115187,23.0830001 2.87871873,23.6216169 L12.5549222,32.508794 C12.5549222,32.508794 12.5773194,32.531235 12.6221224,32.5761254 C12.6669168,32.6210073 12.7117111,32.6658892 12.7565055,32.710771 C12.8013085,32.7556615 12.8237057,32.7781024 12.8237057,32.7781024 C12.913303,32.7781024 13.0028918,32.8005434 13.0924891,32.8454338 C13.1820864,32.8903157 13.2268808,32.9127566 13.2268808,32.9127566 C13.4956642,33.002529 13.6748503,33.0922927 13.7644477,33.182065 L14.3020145,33.182065 C14.570798,33.2718374 14.794787,33.2718374 14.9739731,33.182065 L15.2427565,33.182065 C15.6011373,33.0922927 15.9147151,32.9576385 16.1834986,32.7781024 C16.1834986,32.7781024 16.2282929,32.7332206 16.3178903,32.6434482 C16.5866737,32.4639122 16.7434626,32.3516989 16.788257,32.306817 C16.8330599,32.2619266 16.8778543,32.1946038 16.9226573,32.1048314 C16.9674517,32.0150591 16.9898488,31.9701772 16.9898488,31.9701772 L33.5200298,6.65518778 C33.968008,5.9370263 34.1023911,5.17399159 33.923205,4.36606639 C33.7440189,3.5581412 33.3184466,2.92976068 32.6464794,2.4809076 L32.6464794,2.4809076 Z"/>
</svg>
