<svg xmlns="http://www.w3.org/2000/svg" width="36" height="36" viewBox="0 0 36 36">
  <path fill-rule="evenodd" d="M24.675,9.675 L18.075,16.275 L12.15,9.675 C11.5499952,9.0749952 10.9750032,9.062496 10.425,9.6374976 C9.8749968,10.212504 9.8749968,10.7749968 10.425,11.325 L16.35,17.925 L9.675,24.675 C9.1249968,25.2250032 9.1249968,25.787496 9.675,26.3625024 C10.2250032,26.937504 10.7749968,26.9250048 11.325,26.325 L17.925,19.725 L23.85,26.325 C24.4500048,26.9250048 25.0249968,26.937504 25.575,26.3625024 C26.1250032,25.787496 26.1250032,25.2250032 25.575,24.675 L19.65,18.075 L26.325,11.325 C26.9250048,10.7749968 26.937504,10.212504 26.3625024,9.6374976 C25.787496,9.062496 25.2250032,9.0749952 24.675,9.675 L24.675,9.675 Z"/>
</svg>
