<svg xmlns="http://www.w3.org/2000/svg" width="32" height="32" viewBox="0 0 32 32">
  <g fill="none" fill-rule="evenodd">
    <path fill="#FFA55C" d="M16,32 C24.8365556,32 32,24.836556 32,16 C32,7.163444 24.8365556,0 16,0 C7.163444,0 0,7.163444 0,16 C0,24.836556 7.163444,32 16,32 L16,32 Z M16,28 C22.6274169,28 28,22.627417 28,16 C28,9.37258302 22.6274169,4 16,4 C9.37258302,4 4,9.37258302 4,16 C4,22.627417 9.37258302,28 16,28 L16,28 Z"/>
    <circle cx="16" cy="16" r="12" fill="#FFF5EB"/>
  </g>
</svg>
