<svg xmlns="http://www.w3.org/2000/svg" width="50" height="50" viewBox="0 0 50 50">
  <path fill-rule="evenodd" d="M43.0826667,32.2106667 C44.1066718,32.4382234 44.9599966,32.9573293 45.6426667,33.768 C46.3253367,34.5786707 46.6666667,35.510217 46.6666667,36.5626667 C46.6666667,37.7857839 46.2328932,38.8311068 45.3653333,39.6986667 C44.4977734,40.5662266 43.4524506,41 42.2293333,41 L8.43733333,41 C7.21421611,41 6.16889323,40.5662266 5.30133333,39.6986667 C4.43377344,38.8311068 4,37.7857839 4,36.5626667 C4,35.510217 4.34132992,34.5786707 5.024,33.768 C5.70667008,32.9573293 6.55999488,32.4382234 7.584,32.2106667 C7.584,32.0399991 7.57688896,31.7413355 7.56266667,31.3146667 C7.54844437,30.8879979 7.54133333,30.56089 7.54133333,30.3333333 L7.54133333,14.3333333 C7.54133333,12.8542148 8.06043925,11.5955607 9.09866667,10.5573333 C10.1368941,9.51910592 11.3955482,9 12.8746667,9 L37.792,9 C39.2711185,9 40.5297726,9.51910592 41.568,10.5573333 C42.6062274,11.5955607 43.1253333,12.8542148 43.1253333,14.3333333 L43.1253333,30.3333333 C43.1253333,30.56089 43.1182223,30.8879979 43.104,31.3146667 C43.0897777,31.7413355 43.0826667,32.0399991 43.0826667,32.2106667 L43.0826667,32.2106667 Z M11.1253333,14.3333333 L11.1253333,30.3333333 C11.1253333,30.5893346 11.1324444,30.9164425 11.1466667,31.3146667 C11.160889,31.7128909 11.168,31.9831104 11.168,32.1253333 L12.8746667,32.1253333 L12.8746667,16.1253333 C12.8746667,15.6417754 13.0524427,15.222224 13.408,14.8666667 C13.7635573,14.5111093 14.1831087,14.3333333 14.6666667,14.3333333 L36,14.3333333 C36.483558,14.3333333 36.9031093,14.5111093 37.2586667,14.8666667 C37.614224,15.222224 37.792,15.6417754 37.792,16.1253333 L37.792,32.1253333 L39.5413333,32.1253333 L39.5413333,30.3333333 L39.5413333,14.3333333 C39.5413333,13.8497754 39.3706684,13.430224 39.0293333,13.0746667 C38.6879983,12.7191093 38.275558,12.5413333 37.792,12.5413333 L12.8746667,12.5413333 C12.3911087,12.5413333 11.9786684,12.7191093 11.6373333,13.0746667 C11.2959983,13.430224 11.1253333,13.8497754 11.1253333,14.3333333 L11.1253333,14.3333333 Z M36,32.1253333 L36,16.1253333 L14.6666667,16.1253333 L14.6666667,32.1253333 L36,32.1253333 Z M42.2293333,37.4586667 C42.45689,37.4586667 42.6631102,37.3662231 42.848,37.1813333 C43.0328898,36.9964435 43.1253333,36.7902234 43.1253333,36.5626667 C43.1253333,36.33511 43.0328898,36.1288898 42.848,35.944 C42.6631102,35.7591102 42.45689,35.6666667 42.2293333,35.6666667 L8.43733333,35.6666667 C8.20977664,35.6666667 8.00355648,35.7591102 7.81866667,35.944 C7.63377685,36.1288898 7.54133333,36.33511 7.54133333,36.5626667 C7.54133333,36.7902234 7.63377685,36.9964435 7.81866667,37.1813333 C8.00355648,37.3662231 8.20977664,37.4586667 8.43733333,37.4586667 L42.2293333,37.4586667 Z"/>
</svg>
