<svg xmlns="http://www.w3.org/2000/svg" width="50" height="50" viewBox="0 0 50 50">
  <path fill-rule="evenodd" d="M19.4051753,15.2609851 L32.5838345,15.2609851 C33.4835048,15.2609851 34.2497352,15.5765411 34.8816865,16.2093316 C35.5136377,16.8412828 35.830033,17.606674 35.830033,18.5071835 L35.830033,28.246618 C35.830033,28.3850934 35.8258367,28.5839944 35.8166051,28.8441603 C35.8082126,29.1034869 35.8040164,29.285603 35.8040164,29.3888301 C36.4267359,29.5281447 36.9462284,29.8437007 37.3624938,30.3371765 C37.7779199,30.8306524 37.9852133,31.3979818 37.9852133,32.0383255 C37.9852133,32.5611749 37.8475772,33.0269557 37.5874113,33.4432211 L33.6479968,29.3376361 L33.6479968,28.246618 L33.6479968,18.5071835 C33.6479968,18.2126087 33.5439305,17.9574783 33.336637,17.7409531 C33.1285043,17.524428 32.8775702,17.4161655 32.5838345,17.4161655 L21.5603557,17.4161655 L19.4051753,15.2609851 Z M30.5939854,34.7390149 L14.7154761,34.7390149 C13.971066,34.7390149 13.3349186,34.4754921 12.8061944,33.9467679 C12.2783095,33.418883 12.0139474,32.7827355 12.0139474,32.0383255 C12.0139474,31.3979818 12.2220801,30.8306524 12.6375062,30.3371765 C13.0529324,29.8437007 13.5724248,29.5281447 14.1959836,29.3888301 C14.1959836,29.285603 14.1917874,29.1034869 14.1825557,28.8441603 C14.1741633,28.5839944 14.169967,28.3850934 14.169967,28.246618 L14.169967,18.5071835 C14.169967,18.4459187 14.1833949,18.3905285 14.1859127,18.3309422 L16.351164,20.4961934 L16.351164,28.246618 C16.351164,28.4027176 16.3561994,28.6016185 16.3645919,28.8441603 C16.3729843,29.0858627 16.3771805,29.2503547 16.3771805,29.3376361 L17.4161655,29.3376361 L17.4161655,21.5611949 L18.5071835,22.652213 L18.5071835,29.3376361 L25.1926067,29.3376361 L27.347787,31.4928165 L14.7154761,31.4928165 C14.5770007,31.4928165 14.451114,31.5490459 14.3386552,31.6615046 C14.2261964,31.7739634 14.169967,31.8998501 14.169967,32.0383255 C14.169967,32.1768009 14.2261964,32.3026876 14.3386552,32.4151464 C14.451114,32.5276052 14.5770007,32.5838345 14.7154761,32.5838345 L28.4388051,32.5838345 L30.5939854,34.7390149 Z M31.4928165,27.3486262 L31.4928165,19.5982016 L23.7423918,19.5982016 L22.6513738,18.5071835 L31.4928165,18.5071835 C31.7865521,18.5071835 32.0425217,18.6154461 32.2590469,18.8319712 C32.475572,19.0484964 32.5838345,19.3036267 32.5838345,19.5982016 L32.5838345,28.4396443 L31.4928165,27.3486262 Z M24.9995804,4 C30.7836547,4 35.7301629,6.05447098 39.8382656,10.1617344 C43.945529,14.2698371 46,19.2163453 46,25.0004196 C46,30.784494 43.945529,35.7301629 39.8382656,39.8382656 C35.7301629,43.9463683 30.7836547,46 24.9995804,46 C19.215506,46 14.2698371,43.9463683 10.1617344,39.8382656 C6.05363173,35.7301629 4,30.784494 4,25.0004196 C4,19.2163453 6.05363173,14.2698371 10.1617344,10.1617344 C14.2698371,6.05447098 19.215506,4 24.9995804,4 L24.9995804,4 Z M38.310001,35.3525027 C40.6758318,32.3941653 41.8591667,28.9440304 41.8591667,25.0004196 C41.8591667,20.398841 40.1991408,16.4392846 36.8799281,13.1200719 C33.5607154,9.80085923 29.601159,8.14083325 24.9995804,8.14083325 C21.0559696,8.14083325 17.6058347,9.32416825 14.6474973,11.689999 L38.310001,35.3525027 Z M24.9995804,41.8591667 C28.9431911,41.8591667 32.3941653,40.6758318 35.3516635,38.310001 L11.689999,14.6483365 C9.32416825,17.6058347 8.14083325,21.0568089 8.14083325,25.0004196 C8.14083325,29.601159 9.80001998,33.5607154 13.1192327,36.8807673 C16.4384454,40.19998 20.398841,41.8591667 24.9995804,41.8591667 L24.9995804,41.8591667 Z"/>
</svg>
