<svg xmlns="http://www.w3.org/2000/svg" width="32" height="32" viewBox="0 0 32 32">
  <path fill="#40CBC2" fill-rule="evenodd" d="M16,42 C24.8365556,42 32,34.836556 32,26 C32,17.163444 24.8365556,10 16,10 C7.16344444,10 0,17.163444 0,26 C0,34.836556 7.16344444,42 16,42 L16,42 Z M16,40 C23.7319867,40 30,33.7319865 30,26 C30,18.2680135 23.7319867,12 16,12 C8.26801333,12 2,18.2680135 2,26 C2,33.7319865 8.26801333,40 16,40 L16,40 Z M16,36 C21.5228471,36 26,31.5228475 26,26 C26,20.4771525 21.5228471,16 16,16 C10.4771529,16 6,20.4771525 6,26 C6,31.5228475 10.4771529,36 16,36 L16,36 Z" transform="translate(0 -10)"/>
</svg>
