<svg xmlns="http://www.w3.org/2000/svg" width="50" height="50" viewBox="0 0 50 50">
  <path fill-rule="evenodd" d="M38.6339031,24.736007 L25.1942615,31.4558278 L11.7546199,24.736007 L11.7546199,23.1531159 L24.7910722,29.6713421 C25.0449321,29.798272 25.3435908,29.798272 25.5899843,29.6713421 L38.6339031,23.1531159 L38.6339031,24.736007 Z M31.0106397,17.2919389 L19.086691,23.4816405 L19.086691,14.9698675 L31.0106397,8.70550119 L31.0106397,17.2919389 Z M40.3959894,21.4656942 C40.388523,21.4432948 40.37359,21.413429 40.3661236,21.3910296 C40.3511906,21.3387643 40.3287912,21.2939655 40.3063918,21.2491667 C40.2914589,21.2193008 40.2690595,21.1969014 40.2541266,21.174502 C40.2242607,21.1371697 40.2018613,21.0998373 40.1645289,21.062505 C40.1421295,21.0401056 40.1122637,21.0177062 40.0898643,21.0027733 C40.0674649,20.9803739 40.0450655,20.9579745 40.0151996,20.9430415 C40.0002667,20.9355751 39.9853337,20.9355751 39.9778673,20.9281086 C39.9704008,20.9206421 39.9554679,20.9131756 39.9480014,20.9057092 L33.011653,17.4412682 L33.011653,7.66019573 L33.3327111,7.48846697 C33.9673609,7.15247593 33.9449615,6.27889923 33.2953788,5.92050879 L31.861817,5.12906322 C31.5631583,4.96480094 31.1973014,4.95733447 30.9061092,5.10666382 L16.5704915,12.6403296 C15.9358417,12.9763206 15.9582411,13.8498973 16.6078238,14.2082878 L17.1155436,14.4920135 L17.1155436,17.5756646 L10.4778539,20.8982427 C10.462921,20.9057092 10.4554545,20.9131756 10.4479881,20.9206421 C10.4330551,20.9281086 10.4181222,20.9281086 10.4106557,20.9355751 C10.3807898,20.950508 10.3583904,20.9803739 10.335991,20.9953068 C10.3061252,21.0177062 10.2837258,21.0326391 10.2613264,21.0550385 C10.223994,21.0849044 10.2015946,21.1297032 10.1717288,21.1670355 C10.1567958,21.1894349 10.1343964,21.2118344 10.1194635,21.2417002 C10.0895976,21.286499 10.0746647,21.3387643 10.0597317,21.3835631 C10.0522653,21.4059625 10.0373323,21.4283619 10.0298659,21.4582278 C10.0074665,21.5328925 10,21.6150236 10,21.6971547 L10,25.2810592 L10,36.9287486 C10,37.2647396 10.1941282,37.5783312 10.4927869,37.7276606 L12.2847391,38.6236367 C12.411669,38.6833684 12.5460654,38.7207008 12.6879283,38.7207008 C12.8223247,38.7207008 12.9641876,38.6908349 13.0911176,38.6236367 L14.8830698,37.7276606 C15.189195,37.5783312 15.3758566,37.2647396 15.3758566,36.9287486 L15.3758566,28.5289726 L22.5436655,32.112877 L22.5436655,43.2080478 C22.5436655,43.5440388 22.7377937,43.8576305 23.0364524,44.0069598 L24.8284046,44.9029359 C24.9553345,44.9626677 25.0897309,45 25.2315938,45 C25.3734567,45 25.5078531,44.9701341 25.6347831,44.9029359 L27.4267353,44.0069598 C27.7328605,43.8576305 27.9195221,43.5440388 27.9195221,43.2080478 L27.9195221,32.112877 L35.087331,28.5289726 L35.087331,36.936215 C35.087331,37.2722061 35.2814592,37.5857977 35.5801179,37.7351271 L37.3720701,38.6311032 C37.499,38.6908349 37.6333964,38.7281672 37.7752593,38.7281672 C37.9171222,38.7281672 38.0515186,38.6983014 38.1784486,38.6311032 L39.9704008,37.7351271 C40.276526,37.5857977 40.4631876,37.2722061 40.4631876,36.936215 L40.4631876,25.2885256 L40.4631876,21.7046212 C40.4258553,21.6224901 40.4109224,21.5403589 40.3959894,21.4656942 L40.3959894,21.4656942 Z"/>
</svg>
