<svg width="32" height="32" viewBox="0 0 32 32" xmlns="http://www.w3.org/2000/svg"><path d="M2.667 17.667h11.667v11.667c0 .486.156.885.469 1.198.313.313.712.469 1.198.469s.885-.156 1.198-.469c.313-.313.469-.712.469-1.198v-11.667h11.667c.486 0 .885-.156 1.198-.469.313-.313.469-.712.469-1.198s-.156-.885-.469-1.198c-.313-.313-.712-.469-1.198-.469h-11.667v-11.667c0-.486-.156-.885-.469-1.198-.313-.313-.712-.469-1.198-.469s-.885.156-1.198.469c-.313.313-.469.712-.469 1.198v11.667h-11.667c-.486 0-.885.156-1.198.469-.313.313-.469.712-.469 1.198s.156.885.469 1.198c.313.313.712.469 1.198.469z"/></svg>
