<svg xmlns="http://www.w3.org/2000/svg" width="60" height="50" viewBox="0 0 60 50">
  <path fill-rule="evenodd" d="M46.235548,25.964116 L46.235548,31.5734605 C46.235548,32.6909651 45.8433527,33.6419042 45.0589505,34.4263065 C44.2745482,35.2107088 43.8178819,35.3450196 42.2061045,35.3450196 L34.9531062,35.3450196 L34.9531062,40.1803518 L38.176661,40.1803518 C38.541999,40.1803518 38.8589787,40.3146653 39.1276096,40.5832962 C39.3962405,40.8519271 39.530554,41.1689068 39.530554,41.5342448 C39.530554,41.8995829 39.3962405,42.2165626 39.1276096,42.4851935 C38.8589787,42.7538244 38.541999,42.8881378 38.176661,42.8881378 L22.058887,42.8881378 C21.693549,42.8881378 21.3765692,42.7538244 21.1079383,42.4851935 C20.8393074,42.2165626 20.704994,41.8995829 20.704994,41.5342448 C20.704994,41.1689068 20.8393074,40.8519271 21.1079383,40.5832962 C21.3765692,40.3146653 21.693549,40.1803518 22.058887,40.1803518 L25.2824418,40.1803518 L25.2824418,35.3450196 L18.0294435,35.3450196 C16.4176661,35.3450196 15.9609998,35.2107088 15.1765975,34.4263065 C14.3921952,33.6419042 14,32.6909651 14,31.5734605 L14,16.8095795 C14,15.692075 14.3921952,14.7411358 15.1765975,13.9567336 C15.9609998,13.1723313 16.9119389,12.7801361 18.0294435,12.7801361 L29.6330489,12.7801361 L28.3927599,15.4399444 C28.3903153,15.4451869 28.3878952,15.4504343 28.3854997,15.4556865 L18.0294435,15.4556865 C17.6641055,15.4556865 17.3471257,15.59 17.0784948,15.8586309 C16.8098639,16.1272618 16.6755505,16.4442415 16.6755505,16.8095795 L16.6755505,31.5734605 C16.6755505,31.9387985 16.8098639,32.2557783 17.0784948,32.5244092 C17.3471257,32.7930401 17.6641055,32.9273535 18.0294435,32.9273535 L42.2061045,32.9273535 C42.5714425,32.9273535 42.8884222,32.7930401 43.1570531,32.5244092 C43.425684,32.2557783 43.5599975,31.9387985 43.5599975,31.5734605 L43.5599975,24.7164864 L46.235548,25.964116 Z M42.1580555,24.0627501 L42.1580555,30.0009106 C42.1580555,30.3995839 42.024009,30.7396237 41.7559119,31.0210402 C41.4878149,31.3024566 41.1714652,31.4431628 40.8068532,31.4431628 L19.3806458,31.4431628 C19.0160338,31.4431628 18.6996841,31.3024566 18.431587,31.0210402 C18.16349,30.7396237 18.0294435,30.3995839 18.0294435,30.0009106 L18.0294435,18.2518317 C18.0294435,17.8531584 18.16349,17.5131186 18.431587,17.2317021 C18.6996841,16.9502857 19.0160338,16.8095795 19.3806458,16.8095795 L28.2735703,16.8095795 C28.4218221,17.3556951 28.8005419,17.8340392 29.3527876,18.0915556 L29.6310038,18.2212899 L19.3806458,18.2212899 L19.3806458,29.7215647 L40.8068532,29.7215647 L40.8068532,23.4326741 L42.1580555,24.0627501 Z M32.7933245,40.1803518 L32.7933245,35.3450196 L27.4422235,35.3450196 L27.4422235,40.1803518 L32.7933245,40.1803518 Z M35.9255896,3.12030044 C36.3918058,2.12049654 37.5842576,1.68980709 38.5739355,2.15130145 L57.4774331,10.9661471 C58.4738579,11.4307877 58.9053605,12.6143439 58.4374607,13.6177583 L53.1274737,25.0050622 C52.6612575,26.0048661 51.4688057,26.4355556 50.4791278,25.9740612 L31.5756302,17.1592155 C30.5792054,16.694575 30.1477028,15.5110188 30.6156026,14.5076043 L35.9255896,3.12030044 Z M37.1683114,15.9570211 C37.1961457,15.8973303 37.2361871,15.820119 37.2884368,15.725385 C37.3406864,15.630651 37.4506142,15.4901454 37.6182233,15.303864 C37.7858324,15.1175826 37.9571596,14.9925872 38.13221,14.9288741 C38.3023976,14.8669311 38.5924012,14.8467299 39.0022282,14.8682724 C39.4120551,14.8898133 39.8701234,14.9247695 40.376446,14.9731407 C40.8827678,15.0215101 41.2610349,15.0414591 41.5112577,15.032985 C41.8269086,15.0227233 42.1131875,14.9260985 42.3700995,14.7431067 C42.6270133,14.5601142 42.8180942,14.3343171 42.9433483,14.0657089 C43.0283976,13.88332 43.0194767,13.616744 42.9165879,13.2659728 C42.8134731,12.9070223 42.7955523,12.4757729 42.8628226,11.9722077 C42.9300941,11.468643 43.0974859,10.9300216 43.3650045,10.3563262 C43.5660304,9.92522465 43.8063662,9.56999262 44.0860176,9.29061734 C44.365671,9.01124139 44.6587732,8.8198975 44.9653342,8.71657787 C45.2718964,8.61325884 45.5846604,8.57238458 45.9036381,8.59395291 C46.2226158,8.61552123 46.5363005,8.69820967 46.8447024,8.84201984 C47.1531056,8.9858306 47.4164233,9.17220282 47.6346645,9.4011438 C47.8529045,9.63008418 48.0218062,9.8955628 48.1413703,10.1975878 C48.2609357,10.4996134 48.3035892,10.8475228 48.2693325,11.2413291 C48.2350752,11.6351335 48.1174365,12.0475802 47.9164105,12.4786817 C47.648892,13.0523771 47.3447104,13.5272124 47.0038555,13.903203 C46.6630019,14.2791942 46.3219554,14.5430544 45.9807037,14.6947934 C45.640997,14.8432159 45.429397,15.0069613 45.3458939,15.1860343 C45.2221861,15.4513266 45.1732554,15.7424002 45.1991009,16.059264 C45.2249457,16.3761259 45.3353858,16.6587531 45.5304226,16.9071524 C45.68477,17.1042807 45.9431972,17.381227 46.305709,17.7380014 C46.6682201,18.094774 46.9877794,18.4224316 47.2643975,18.7209852 C47.5410161,19.0195376 47.7102928,19.2539047 47.7722359,19.424092 C47.8359497,19.5991427 47.853804,19.8032712 47.8257991,20.0364835 C47.7977954,20.2696965 47.7538642,20.459144 47.694003,20.6048313 L47.6091868,20.8256813 L37.1683114,15.9570211 Z"/>
</svg>
