<svg width="32" height="32" viewBox="0 0 32 32" xmlns="http://www.w3.org/2000/svg"><path d="M17.666 21.822c3.037 0 5.5-2.478 5.5-5.534 0-3.056-2.462-5.534-5.5-5.534-3.037 0-5.5 2.478-5.5 5.534 0 3.056 2.462 5.534 5.5 5.534zm8.96 2.188c-4.156 5.071-11.639 5.795-16.679 1.613-5.04-4.182-5.759-11.711-1.602-16.782 3.66-4.466 9.898-5.558 14.776-2.901h-1.836c-.626 0-1.133.51-1.133 1.14 0 .63.507 1.14 1.133 1.14h4.909c.626 0 1.133-.51 1.133-1.14v-4.94c0-.63-.507-1.14-1.133-1.14s-1.133.51-1.133 1.14v1.858c-6.058-3.744-14.107-2.523-18.757 3.15-5.084 6.202-4.204 15.411 1.96 20.526 2.695 2.236 5.96 3.326 9.207 3.326 4.181 0 8.332-1.807 11.194-5.298 0 0 .252-1.039-.393-1.579s-1.646-.113-1.646-.113z"/></svg>
