<svg xmlns="http://www.w3.org/2000/svg" width="50" height="50" viewBox="0 0 50 50">
  <path d="M16.1785714,17.2857143 C19.0386175,17.2857143 21.3571429,14.9831787 21.3571429,12.1428571 C21.3571429,9.30253557 19.0386175,7 16.1785714,7 C13.3185254,7 11,9.30253557 11,12.1428571 C11,14.9831787 13.3185254,17.2857143 16.1785714,17.2857143 Z M13.0714286,34.7714286 L19.2857143,34.7714286 L19.2857143,43 L13.0714286,43 L13.0714286,34.7714286 Z M12.035335,17.2857143 L11,17.2857143 L11,34.7714286 L21.3571429,34.7714286 L21.3571429,17.2857143 L20.3218078,17.2857143 C19.3770227,18.5348595 17.8728113,19.3428571 16.1785714,19.3428571 C14.4843315,19.3428571 12.9801201,18.5348595 12.035335,17.2857143 Z M33.7857143,17.2857143 C36.6457603,17.2857143 38.9642857,14.9831787 38.9642857,12.1428571 C38.9642857,9.30253557 36.6457603,7 33.7857143,7 C30.9256683,7 28.6071429,9.30253557 28.6071429,12.1428571 C28.6071429,14.9831787 30.9256683,17.2857143 33.7857143,17.2857143 Z M30.6785714,34.7714286 L36.8928571,34.7714286 L36.8928571,43 L30.6785714,43 L30.6785714,34.7714286 Z M37.1970077,18.0694608 L40,34.7714286 L27.5714286,34.7714286 L30.3744209,18.0694608 C31.2855467,18.8623045 32.4791213,19.3428571 33.7857143,19.3428571 C35.0923073,19.3428571 36.2858818,18.8623045 37.1970077,18.0694608 Z"/>
</svg>
