<svg xmlns="http://www.w3.org/2000/svg" width="60" height="50" viewBox="0 0 60 50">
  <path fill-rule="evenodd" d="M21.1785714,17.2857143 C24.0386175,17.2857143 26.3571429,14.9831787 26.3571429,12.1428571 C26.3571429,9.30253557 24.0386175,7 21.1785714,7 C18.3185254,7 16,9.30253557 16,12.1428571 C16,14.9831787 18.3185254,17.2857143 21.1785714,17.2857143 Z M18.0714286,34.7714286 L24.2857143,34.7714286 L24.2857143,43 L18.0714286,43 L18.0714286,34.7714286 Z M17.035335,17.2857143 L16,17.2857143 L16,34.7714286 L26.3571429,34.7714286 L26.3571429,17.2857143 L25.3218078,17.2857143 C24.3770227,18.5348595 22.8728113,19.3428571 21.1785714,19.3428571 C19.4843315,19.3428571 17.9801201,18.5348595 17.035335,17.2857143 Z M38.7857143,17.2857143 C41.6457603,17.2857143 43.9642857,14.9831787 43.9642857,12.1428571 C43.9642857,9.30253557 41.6457603,7 38.7857143,7 C35.9256683,7 33.6071429,9.30253557 33.6071429,12.1428571 C33.6071429,14.9831787 35.9256683,17.2857143 38.7857143,17.2857143 Z M35.6785714,34.7714286 L41.8928571,34.7714286 L41.8928571,43 L35.6785714,43 L35.6785714,34.7714286 Z M42.1970077,18.0694608 L45,34.7714286 L32.5714286,34.7714286 L35.3744209,18.0694608 C36.2855467,18.8623045 37.4791213,19.3428571 38.7857143,19.3428571 C40.0923073,19.3428571 41.2858818,18.8623045 42.1970077,18.0694608 Z"/>
</svg>
