<svg xmlns="http://www.w3.org/2000/svg" width="60" height="50" viewBox="0 0 60 50">
  <path fill-rule="evenodd" d="M33.6444525,24.7799911 C33.6444525,20.8095237 32.0982815,17.0767557 29.2907541,14.2692282 C26.4832266,11.4617007 22.7504586,9.91552981 18.7799911,9.91552981 C14.8095862,9.91552981 11.0767557,11.4617007 8.26922819,14.2692282 C5.46176322,17.0767557 3.91552981,20.8095237 3.91552981,24.7799911 C3.91552981,28.7504586 5.46176322,32.4832266 8.26922819,35.2906916 C11.0767557,38.0982815 14.8095862,39.6444525 18.7799911,39.6444525 C22.7504586,39.6444525 26.4832266,38.0982815 29.2907541,35.2906916 C32.0982815,32.4832266 33.6444525,28.7504586 33.6444525,24.7799911 M35.5599823,24.7799911 C35.5599823,34.0473312 28.0473312,41.5599823 18.7799911,41.5599823 C9.51265105,41.5599823 2,34.0473312 2,24.7799911 C2,15.512651 9.51265105,8 18.7799911,8 C28.0473312,8 35.5599823,15.512651 35.5599823,24.7799911 M20.1368898,24.7799911 C20.1368898,24.0305881 19.5293941,23.4230924 18.7799911,23.4230924 C18.0305881,23.4230924 17.4230924,24.0305881 17.4230924,24.7799911 C17.4230924,25.5293941 18.0305881,26.1368898 18.7799911,26.1368898 C19.5293941,26.1368898 20.1368898,25.5293941 20.1368898,24.7799911 M21.6252606,24.7799911 C21.6252606,26.3513442 20.3514067,27.6252606 18.7799911,27.6252606 C17.2086381,27.6252606 15.9347842,26.3513442 15.9347842,24.7799911 C15.9347842,23.2085756 17.2086381,21.9347217 18.7799911,21.9347217 C20.3514067,21.9347217 21.6252606,23.2085756 21.6252606,24.7799911 M29.2511375,23.0550458 C27.867557,22.3143909 24.5565117,21.9299102 21.937944,22.6137647 C22.3614164,23.229946 22.6097385,23.9758498 22.6097385,24.7799911 C22.6097385,25.9654263 22.0709782,27.0248883 21.2251582,27.7273638 C21.5132219,28.1644583 21.7300508,28.5714342 21.8406522,28.9176105 C22.5784327,31.226869 21.5023492,33.8076947 23.349956,34.7967342 C24.5187072,35.4223511 28.5651585,33.6206095 30.2584231,30.4573453 C31.9516253,27.2941435 31.3845584,24.1970527 29.2511375,23.0550458 M18.2624138,11.9174787 C14.6744899,11.9174787 12.2115766,13.8791237 12.2115766,16.2989212 C12.2115766,17.8936443 13.4749952,21.0696558 15.3634058,23.0502968 C15.9953963,21.8045619 17.2874963,20.9502437 18.7799911,20.9502437 C19.2473917,20.9502437 19.6951089,21.0342259 20.1092082,21.1875057 C20.361592,20.7194804 20.6212867,20.3296883 20.8774822,20.0654945 C22.565248,18.3252399 25.3484056,18.0559222 25.3484056,15.9602433 C25.3484056,14.6346504 21.8502752,11.9174787 18.2624138,11.9174787 M18.9236481,28.6061143 C18.1783067,31.2224325 16.1267433,33.8987378 14.770407,34.7111274 C12.6944738,35.9545503 9.74603887,34.849598 7.90243126,31.7716281 C6.05882364,28.6935957 6.59239758,24.2964066 7.72965553,23.615239 C9.52752288,22.5384057 11.1886068,24.7876145 13.548792,25.3413717 C13.9290236,25.4305402 14.4324789,25.4505984 15.0043572,25.4191051 C15.3086675,27.2298447 16.8827699,28.6097385 18.7799911,28.6097385 C18.8281684,28.6097385 18.8759082,28.6078639 18.9236481,28.6061143 M38.3694281,25.7682808 C37.8172956,25.7682808 37.3696409,25.3206886 37.3696409,24.7684936 C37.3696409,24.2163611 37.8172331,23.7687064 38.3694281,23.7687064 C38.5091483,23.7687064 52.2495989,23.7685189 52.5925259,23.7680815 C55.7395436,23.7160926 56.0004256,22.8284065 56.0004256,21.8441785 C56.0004256,21.2269348 55.8128405,20.7745311 55.4269851,20.4610978 C54.9909529,20.1067983 54.2912269,19.9195881 53.4034158,19.9195881 C52.8512208,19.9195881 52.4036286,19.4719959 52.4036286,18.9198009 C52.4036286,18.3676059 52.8512208,17.9200137 53.4034158,17.9200137 C56.2386874,17.9200137 58,19.4236936 58,21.8441785 C58,23.6430456 57.0726974,24.5554139 56.2948629,25.004006 C55.4376079,25.4983382 54.2692315,25.7409741 52.617833,25.767531 C52.6073977,25.7677184 52.5832154,25.7680933 38.3694281,25.7682808 M40.0681603,22.5301387 C39.5160278,22.5301387 39.0683731,22.0825465 39.0683731,21.530414 C39.0683731,20.978219 39.5159653,20.5305643 40.0680978,20.5305643 C42.0236191,20.5305018 45.7266434,20.5302519 45.9016687,20.5299394 C46.9207018,20.5114434 47.873749,20.102093 48.5884094,19.3764974 C49.3056317,18.6483399 49.7006101,17.6842951 49.7006101,16.6620752 C49.7006101,15.0658524 48.4020115,13.7672538 46.8057888,13.7672538 C45.6390371,13.7672538 44.6898641,14.7164268 44.6898641,15.8831159 C44.6898641,16.7062533 45.3595341,17.3759232 46.1826714,17.3759232 C46.7348039,17.3759232 47.1824586,17.8235155 47.1824586,18.3757104 C47.1824586,18.9279054 46.7348039,19.3754976 46.1826714,19.3754976 C44.2569562,19.3754976 42.6902897,17.8087686 42.6902897,15.8831159 C42.6902897,13.6138489 44.5365217,11.7676794 46.8057888,11.7676794 C49.5045894,11.7676794 51.7001846,13.9632746 51.7001846,16.6620752 C51.7001846,18.2126826 51.1009996,19.6750589 50.0129812,20.7796363 C48.9262125,21.8830889 47.4755837,22.5043942 45.9282255,22.5293264 C45.9179777,22.5295139 45.8947327,22.5299513 40.0681603,22.5301387 M48.2228559,37.7923279 C45.9535889,37.7923279 44.1073568,35.9461583 44.1073568,33.6768913 C44.1073568,31.7511762 45.6740234,30.1845096 47.5996761,30.1845096 C48.151871,30.1845096 48.5994633,30.6321019 48.5994633,31.1842968 C48.5994633,31.7364918 48.151871,32.184084 47.5996761,32.184084 C46.7765387,32.184084 46.1069313,32.853754 46.1069313,33.6768913 C46.1069313,34.8435805 47.0561042,35.7927535 48.2228559,35.7927535 C49.8190787,35.7927535 51.1176773,34.4941549 51.1176773,32.8979321 C51.1176773,31.8756497 50.7226989,30.9116673 50.005414,30.1834473 C49.2903162,29.4574144 48.3363943,29.047939 47.3188608,29.0299428 C47.169955,29.0296929 44.4344747,29.0295054 42.9903446,29.029443 C42.4382121,29.029443 41.9906199,28.5817882 41.9906199,28.0295933 C41.9906199,27.4774608 42.4382746,27.0298685 42.9904071,27.0298685 L42.9904696,27.0298685 C47.3106126,27.030056 47.3348574,27.0303684 47.3452302,27.0305559 C48.8926509,27.0555506 50.3432796,27.6769183 51.4300483,28.7803085 C52.5180667,29.8849484 53.1172517,31.3472621 53.1172517,32.8979321 C53.1172517,35.5966702 50.921594,37.7923279 48.2228559,37.7923279"/>
</svg>
