<svg xmlns="http://www.w3.org/2000/svg" width="50" height="50" viewBox="0 0 50 50">
  <path fill-rule="evenodd" d="M44.3492999,9.83042797 L34.9376182,5.12458714 C34.606327,4.95847095 34.2166834,4.95847095 33.8853922,5.12458714 L5.6503472,19.2421096 C5.25176248,19.4416373 5,19.8486925 5,20.2943356 L5,39.117699 C5,39.5633421 5.25176248,39.9708679 5.6503472,40.169925 L15.0620289,44.8757658 C15.2276745,44.9585886 15.4079082,45 15.5881419,45 C15.7683756,45 15.9486093,44.9585886 16.1142549,44.8757658 L44.3492999,30.7582433 C44.7478846,30.5591862 44.9996471,30.1516604 44.9996471,29.7060173 L44.9996471,10.882654 C44.9996471,10.4370108 44.7478846,10.0299556 44.3492999,9.83042797 L44.3492999,9.83042797 Z M42.6467266,20.2251598 L39.7055761,21.695735 L39.7055761,18.3051767 L42.6467266,16.8346015 L42.6467266,20.2251598 L42.6467266,20.2251598 Z M7.35292042,26.2458125 L14.9999118,30.0693082 L14.9999118,33.4598665 L7.35292042,29.6368414 L7.35292042,26.2458125 L7.35292042,26.2458125 Z M16.176372,33.4598665 L16.176372,30.0693082 L19.7057526,28.3046179 L19.7057526,31.6951762 L16.176372,33.4598665 L16.176372,33.4598665 Z M24.736767,29.1799043 L20.8822128,31.1069461 L20.8822128,27.7163878 L29.1174343,23.5987771 L29.1174343,26.9893354 L24.736767,29.1799043 L24.736767,29.1799043 Z M34.1484487,24.4740635 L30.2938945,26.4011053 L30.2938945,23.010547 L38.5291159,18.8929362 L38.5291159,22.2834946 L34.1484487,24.4740635 L34.1484487,24.4740635 Z M38.8542895,17.4153022 L34.9997353,19.342344 L34.9997353,15.9517857 L42.6467266,12.12829 L42.6467266,15.5188484 L38.8542895,17.4153022 L38.8542895,17.4153022 Z M33.8232751,16.5404864 L33.8232751,19.9310447 L29.4426079,22.1216136 L25.5880536,24.0486555 L25.5880536,20.6580971 L33.8232751,16.5404864 L33.8232751,16.5404864 Z M24.4115934,21.2463272 L24.4115934,24.6368856 L20.0309262,26.8274545 L16.176372,28.7544963 L16.176372,25.363938 L24.4115934,21.2463272 L24.4115934,21.2463272 Z M14.9999118,25.363938 L14.9999118,28.7544963 L11.4705311,26.989806 L11.4705311,23.5992477 L14.9999118,25.363938 L14.9999118,25.363938 Z M10.2940709,26.4011053 L7.35292042,24.93053 L7.35292042,21.5399717 L10.2940709,23.010547 L10.2940709,26.4011053 L10.2940709,26.4011053 Z M7.35292042,34.3422117 L7.35292042,30.9516534 L10.2940709,32.4222286 L10.2940709,35.8127869 L7.35292042,34.3422117 L7.35292042,34.3422117 Z M11.4705311,33.0109293 L14.9999118,34.7756196 L14.9999118,38.1661779 L11.4705311,36.4014876 L11.4705311,33.0109293 L11.4705311,33.0109293 Z M20.0309262,36.2386655 L16.176372,38.1657074 L16.176372,34.775149 L24.4115934,30.6575383 L24.4115934,34.0480966 L20.0309262,36.2386655 L20.0309262,36.2386655 Z M29.4426079,31.5328247 L25.5880536,33.4598665 L25.5880536,30.0693082 L33.8232751,25.9516975 L33.8232751,29.3422558 L29.4426079,31.5328247 L29.4426079,31.5328247 Z M34.9997353,28.7540257 L34.9997353,25.3634674 L39.3794614,23.1733691 C39.3799319,23.1733691 39.3799319,23.1733691 39.3804025,23.1728985 L42.6467266,21.5399717 L42.6467266,24.93053 L38.8542895,26.8269839 L34.9997353,28.7540257 L34.9997353,28.7540257 Z M34.4115052,7.49209566 L41.8504984,11.2115923 L15.5881419,24.3427705 L8.14914868,20.6232739 L34.4115052,7.49209566 L34.4115052,7.49209566 Z M7.35292042,38.3906466 L7.35292042,35.6574942 L14.9999118,39.4809899 L14.9999118,42.2141422 L7.35292042,38.3906466 L7.35292042,38.3906466 Z M16.176372,42.2141422 L16.176372,39.4809899 L19.7057526,37.7162996 L19.7057526,40.4494519 L16.176372,42.2141422 L16.176372,42.2141422 Z M20.8822128,39.8612218 L20.8822128,37.1280695 L29.1174343,33.0104587 L29.1174343,35.7436111 L20.8822128,39.8612218 L20.8822128,39.8612218 Z M30.2938945,35.155381 L30.2938945,32.4222286 L38.5291159,28.3046179 L38.5291159,31.0377703 L30.2938945,35.155381 L30.2938945,35.155381 Z M39.7055761,27.7163878 L42.6467266,26.2458125 L42.6467266,28.9789649 L39.7055761,30.4495402 L39.7055761,27.7163878 L39.7055761,27.7163878 Z"/>
</svg>
