<svg xmlns="http://www.w3.org/2000/svg" width="50" height="50" viewBox="0 0 50 50">
  <path fill-rule="evenodd" d="M40.5337941,18.3683318 L35.9059405,25.3105652 C35.7378856,25.56273 35.465373,25.6989863 35.2973181,25.6149588 L35.2973181,25.6149588 C35.1292632,25.5309314 35.1292632,25.2584188 35.2973181,25.0063364 L39.9251716,18.064103 C40.0932265,17.8119382 40.3657391,17.6756819 40.5337941,17.7597094 L40.5337941,17.7597094 C40.701849,17.8437368 40.701849,18.1162494 40.5337941,18.3683318 L40.5337941,18.3683318 Z M37.7894737,19.231508 L35.4670206,22.7154348 C35.2989657,22.9675995 35.0264531,23.1038558 34.8583982,23.0198284 L34.8583982,23.0198284 C34.6903432,22.9358009 34.6903432,22.6632883 34.8583982,22.4112059 L37.1808513,18.9272792 C37.3489062,18.6751144 37.6214188,18.5388581 37.7894737,18.6228856 C37.957611,18.706913 37.957611,18.9793432 37.7894737,19.231508 L37.7894737,19.231508 Z M20.4365675,24.9825286 L20.4365675,43.586373 L18.1549748,42.460405 L18.1549748,23.7736865 L20.4365675,24.9825286 Z M42.2377391,13.263087 L21.4314691,23.6062082 L18.8837895,22.25246 L39.6624622,11.9455034 L42.2377391,13.263087 Z M33.862508,27.0137689 L33.862508,19.6763593 L41.7161098,15.8140618 L41.7161098,23.2242952 L33.862508,27.0137689 Z M30.9674325,28.472881 L22.162508,32.7443593 L22.162508,25.3585103 L30.9674325,20.9422082 L30.9674325,28.472881 Z M22.3009886,42.1827849 L22.3009886,35.609778 L30.9674325,31.2987574 L30.9674325,37.8392243 L22.3009886,42.1827849 Z M33.862508,28.0459062 L33.862508,19.6763593 L42.6503799,15.3546293 L42.6503799,23.7388398 L33.862508,28.0459062 Z M33.862508,28.6081487 L33.862508,19.6763593 L43.0781785,15.1442311 L43.0781785,24.0760206 L33.862508,28.6081487 Z M31.897913,28.8961487 L22.162508,33.6800297 L22.162508,25.3433524 L31.897913,20.4770915 L31.897913,28.8961487 Z M22.3009886,43.2042952 L22.3009886,35.609778 L31.897913,30.8319108 L31.897913,38.3314439 L22.3009886,43.2042952 Z M32.4562838,29.1617414 L22.162508,34.2715995 L22.162508,25.3398101 L32.4562838,20.2299519 L32.4562838,29.1617414 Z M33.862508,30.0320847 L41.7161098,26.087984 L41.7161098,32.3924325 L33.862508,36.3726979 L33.862508,30.0320847 Z M33.862508,37.4536041 L33.862508,30.0105011 L42.621135,25.6355538 L42.6503799,33.0073158 L33.862508,37.4536041 Z M22.3009886,43.743389 L22.3009886,35.6477551 L32.4745721,30.5424279 L32.4745721,38.6380618 L22.3009886,43.743389 Z M43.0958078,25.3985469 L43.0781785,33.3645149 L33.862508,37.9765515 L33.862508,30.0105011 L43.0958078,25.3985469 Z M44.4145446,12.5556911 L39.6635332,10.0978055 C39.40346,9.96739817 39.0976659,9.96739817 38.8375927,10.0978055 L16.510508,21.178968 C16.1976293,21.3355721 16,21.6550412 16,22.0048261 L16,42.5469039 C16,42.8966888 16.1976293,43.2165698 16.510508,43.3728444 L21.4262792,45.83073 C21.556357,45.8957277 21.6978032,45.9281854 21.8392494,45.9281854 C21.9806957,45.9281854 22.1222243,45.8957277 22.2522197,45.83073 L44.4145446,34.7495675 C44.7274233,34.5932929 44.9250526,34.2734119 44.9250526,33.923627 L44.9250526,13.3815492 C44.9250526,13.0317643 44.7274233,12.7122952 44.4145446,12.5556911 L44.4145446,12.5556911 Z M9.34853333,7.30728889 L8.34364444,8.31635556 L7.21733333,7.18604444 C6.98293333,6.95075556 6.98293333,6.56906667 7.21733333,6.33377778 L7.37342222,6.17697778 C7.60782222,5.9416 7.98782222,5.9416 8.22222222,6.17697778 L9.34853333,7.30728889 Z M7.40071111,11.2768 L7.40071111,12.7232 L5.67208889,12.7232 C5.30088889,12.7232 5,12.4534222 5,12.1205333 L5,11.8795556 C5,11.5466667 5.30088889,11.2768 5.67208889,11.2768 L7.40071111,11.2768 Z M13.7034667,4.68568889 L13.7034667,6.41084444 L12.2966222,6.41084444 L12.2966222,4.68568889 C12.2966222,4.30702222 12.5653333,4 12.8968,4 L13.1032889,4 C13.4347556,4 13.7034667,4.30702222 13.7034667,4.68568889 L13.7034667,4.68568889 Z M18.7826667,7.09715556 L17.6563556,8.31635556 L16.6514667,7.30728889 L17.7777778,6.08808889 C18.0121778,5.85271111 18.3921778,5.85271111 18.6265778,6.08808889 L18.7826667,6.2448 C19.0170667,6.48017778 19.0170667,6.86177778 18.7826667,7.09715556 L18.7826667,7.09715556 Z M16.6514667,16.6592 L17.6563556,15.6837333 L18.7826667,16.8139556 C19.0170667,17.0493333 19.0170667,17.4309333 18.7826667,17.6663111 L18.6320889,17.8175111 C18.3955556,18.0550222 17.8335111,17.8747556 17.6000889,17.6341333 L16.6514667,16.6592 Z M18.5992889,11.2768 L20.3279111,11.2768 C20.6991111,11.2768 21,11.5466667 21,11.8795556 L21,12.1205333 C21,12.4534222 20.6991111,12.7232 20.3279111,12.7232 L18.5992889,12.7232 L18.5992889,11.2768 Z M13,7.67768889 C14.1835556,7.67768889 15.1939556,8.09813333 16.0313778,8.93911111 C16.8688,9.78 17.2874667,10.7946667 17.2874667,11.9832 C17.2874667,13.1717333 16.8688,14.1864 16.0313778,15.0272889 C15.1939556,15.8682667 14.1835556,16.2887111 13,16.2887111 C11.8164444,16.2887111 10.8060444,15.8682667 9.96862222,15.0272889 C9.1312,14.1864 8.71253333,13.1717333 8.71253333,11.9832 C8.71253333,10.7946667 9.1312,9.78 9.96862222,8.93911111 C10.8060444,8.09813333 11.8164444,7.67768889 13,7.67768889 L13,7.67768889 Z M14.8285333,13.8193778 C15.3384,13.3073778 15.5862222,12.7067556 15.5862222,11.9832 C15.5862222,11.2596444 15.3384,10.6591111 14.8285333,10.1470222 C14.3186667,9.63502222 13.7205333,9.38604444 13,9.38604444 C12.2795556,9.38604444 11.6815111,9.63502222 11.1715556,10.1470222 C10.6616889,10.6591111 10.4137778,11.2596444 10.4137778,11.9832 C10.4137778,12.7067556 10.6616889,13.3073778 11.1715556,13.8193778 C11.6815111,14.3313778 12.2795556,14.5803556 13,14.5803556 C13.7205333,14.5803556 14.3186667,14.3313778 14.8285333,13.8193778 L14.8285333,13.8193778 Z M12.2966222,19.3144 L12.2966222,17.5892444 L13.7034667,17.5892444 L13.7034667,19.3144 C13.7034667,19.6930667 13.4347556,20 13.1032889,20 L12.8968,20 C12.5653333,20 12.2966222,19.6930667 12.2966222,19.3144 L12.2966222,19.3144 Z M7.2064,16.8140444 L8.34364444,15.6500444 L9.34853333,16.6592 L8.22213333,17.8119111 C7.98871111,18.0525333 7.60444444,18.0550222 7.36791111,17.8175111 L7.21191111,17.6608 C6.97964444,17.4276444 6.97724444,17.0502222 7.2064,16.8140444 L7.2064,16.8140444 Z"/>
</svg>
